Coordinates
version=1
nRows=16
nColumns=21
inDegrees=yes

Units are S.I. units (second, meters, Newtons, ...)
If the header above contains a line with 'inDegrees', this indicates whether rotational values are in degrees (yes) or radians (no).

endheader
time	sternoclavicular_r2	sternoclavicular_r3	unrotscap_r3	unrotscap_r2	acromioclavicular_r2	acromioclavicular_r3	acromioclavicular_r1	unrothum_r1	unrothum_r3	unrothum_r2	elv_angle	shoulder_elev	shoulder1_r2	shoulder_rot	elbow_flexion	pro_sup	deviation	flexion	wrist_hand_r1	wrist_hand_r3
      0.00000000	    -12.30388997	      5.21134708	     -5.21134708	     12.30388997	     -2.49128744	     20.13370875	      9.04996352	     -9.04996352	    -20.13370875	      2.49128744	    129.99897018	     50.84240658	   -129.99897018	     20.00509903	      0.00447140	      0.00000000	      0.00000000	     -0.00000000	     -0.00000000	      0.00000000
      0.02010050	    -12.30388997	      5.21134708	     -5.21134708	     12.30388997	     -2.49128744	     20.13370875	      9.04996352	     -9.04996352	    -20.13370875	      2.49128744	    129.99897018	     50.84240657	   -129.99897018	     20.00509902	      0.00447140	      0.00000000	      0.00000000	     -0.00000000	     -0.00000000	      0.00000000
      0.04020101	    -12.30390055	      5.21135156	     -5.21135156	     12.30390055	     -2.49128958	     20.13372606	      9.04997130	     -9.04997130	    -20.13372606	      2.49128958	    129.99897018	     50.84245029	   -129.99897018	     20.00509899	      0.00447139	      0.00000000	      0.00000000	     -0.00000000	     -0.00000000	      0.00000000
      0.06030151	    -12.30395301	      5.21137378	     -5.21137378	     12.30395301	     -2.49130020	     20.13381191	      9.05000989	     -9.05000989	    -20.13381191	      2.49130020	    129.99897019	     50.84266708	   -129.99897019	     20.00509887	      0.00447135	      0.00000000	      0.00000000	     -0.00000000	     -0.00000000	      0.00000000
      0.08040201	    -12.30408819	      5.21143104	     -5.21143104	     12.30408819	     -2.49132757	     20.13403312	      9.05010932	     -9.05010932	    -20.13403312	      2.49132757	    129.99897022	     50.84322568	   -129.99897022	     20.00509855	      0.00447123	      0.00000000	      0.00000000	     -0.00000000	     -0.00000000	      0.00000000
      0.10050251	    -12.30434565	      5.21154008	     -5.21154008	     12.30434565	     -2.49137970	     20.13445442	      9.05029869	     -9.05029869	    -20.13445442	      2.49137970	    129.99897028	     50.84428956	   -129.99897028	     20.00509792	      0.00447101	      0.00000000	      0.00000000	     -0.00000000	     -0.00000000	      0.00000000
      0.12060302	    -12.30476372	      5.21171716	     -5.21171716	     12.30476372	     -2.49146435	     20.13513853	      9.05060619	     -9.05060619	    -20.13513853	      2.49146435	    129.99897038	     50.84601710	   -129.99897038	     20.00509689	      0.00447066	      0.00000000	      0.00000000	     -0.00000000	     -0.00000000	      0.00000000
      0.14070352	    -12.30537949	      5.21197797	     -5.21197797	     12.30537949	     -2.49158904	     20.13614615	      9.05105911	     -9.05105911	    -20.13614615	      2.49158904	    129.99897053	     50.84856159	   -129.99897053	     20.00509536	      0.00447013	      0.00000000	      0.00000000	     -0.00000000	     -0.00000000	      0.00000000
      0.16080402	    -12.30622884	      5.21233772	     -5.21233772	     12.30622884	     -2.49176101	     20.13753602	      9.05168385	     -9.05168385	    -20.13753602	      2.49176101	    129.99897073	     50.85207133	   -129.99897073	     20.00509324	      0.00446941	      0.00000000	      0.00000000	     -0.00000000	     -0.00000000	      0.00000000
      0.18090452	    -12.30734650	      5.21281110	     -5.21281110	     12.30734650	     -2.49198732	     20.13936491	      9.05250592	     -9.05250592	    -20.13936491	      2.49198732	    129.99897099	     50.85668972	   -129.99897099	     20.00509043	      0.00446846	      0.00000000	      0.00000000	     -0.00000000	     -0.00000000	      0.00000000
      0.20100503	    -12.30876598	      5.21341233	     -5.21341233	     12.30876598	     -2.49227473	     20.14168770	      9.05355000	     -9.05355000	    -20.14168770	      2.49227473	    129.99897133	     50.86255533	   -129.99897133	     20.00508686	      0.00446725	      0.00000000	      0.00000000	     -0.00000000	     -0.00000000	      0.00000000
      0.22110553	    -12.31051966	      5.21415511	     -5.21415511	     12.31051966	     -2.49262982	     20.14455738	      9.05483990	     -9.05483990	    -20.14455738	      2.49262982	    129.99897174	     50.86980196	   -129.99897174	     20.00508244	      0.00446576	      0.00000000	      0.00000000	     -0.00000000	     -0.00000000	      0.00000000
      0.24120603	    -12.31263882	      5.21505268	     -5.21505268	     12.31263882	     -2.49305890	     20.14802510	      9.05639862	     -9.05639862	    -20.14802510	      2.49305890	    129.99897224	     50.87855877	   -129.99897224	     20.00507708	      0.00446396	      0.00000000	      0.00000000	     -0.00000000	     -0.00000000	      0.00000000
      0.26130653	    -12.31515359	      5.21611782	     -5.21611782	     12.31515359	     -2.49356809	     20.15214020	      9.05824833	     -9.05824833	    -20.15214020	      2.49356809	    129.99897284	     50.88895036	   -129.99897284	     20.00507071	      0.00446182	      0.00000000	      0.00000000	     -0.00000000	     -0.00000000	      0.00000000
      0.28140704	    -12.31809304	      5.21736283	     -5.21736283	     12.31809304	     -2.49416327	     20.15695023	      9.06041040	     -9.06041040	    -20.15695023	      2.49416327	    129.99897353	     50.90109683	   -129.99897353	     20.00506326	      0.00445933	      0.00000000	      0.00000000	     -0.00000000	     -0.00000000	      0.00000000
      0.30150754	    -12.32148518	      5.21879958	     -5.21879958	     12.32148518	     -2.49485011	     20.16250101	      9.06290544	     -9.06290544	    -20.16250101	      2.49485011	    129.99897433	     50.91511389	   -129.99897433	     20.00505464	      0.00445646	      0.00000000	      0.00000000	     -0.00000000	     -0.00000000	      0.00000000
